Coordinates
version=1
nRows=20
nColumns=38
inDegrees=no

Units are S.I. units (second, meters, Newtons, ...)
If the header above contains a line with 'inDegrees', this indicates whether rotational values are in degrees (yes) or radians (no).

endheader
time	pelvis_tilt	pelvis_list	pelvis_rotation	pelvis_tx	pelvis_ty	pelvis_tz	hip_flexion_r	hip_adduction_r	hip_rotation_r	knee_angle_r	ankle_angle_r	subtalar_angle_r	mtp_angle_r	hip_flexion_l	hip_adduction_l	hip_rotation_l	knee_angle_l	ankle_angle_l	subtalar_angle_l	mtp_angle_l	lumbar_extension	lumbar_bending	lumbar_rotation	arm_flex_r	arm_add_r	arm_rot_r	elbow_flex_r	pro_sup_r	wrist_flex_r	wrist_dev_r	arm_flex_l	arm_add_l	arm_rot_l	elbow_flex_l	pro_sup_l	wrist_flex_l	wrist_dev_l
60	-2.65038	1.30169	1.35916	0.805499	1.02343	0.995706	0.0457778	0.0661195	-0.400594	0.339425	-0.114969	0	0	0.491219	-0.0887625	0.0410886	0.202024	-0.353193	0	0	-0.0340455	0.0421822	0.180276	0.617212	-0.114823	0.375455	0.956846	1.5708	0	0	-0.040191	-0.478496	1.02897	0.628361	0.751023	0	0
60.01	-2.65082	1.2993	1.35051	0.80738	1.01605	0.996757	0.0542874	0.0601631	-0.386085	0.367186	-0.13185	0	0	0.491732	-0.0916796	0.0485685	0.220441	-0.342153	0	0	-0.0299084	0.0430528	0.179619	0.609246	-0.107056	0.377779	0.957588	1.5708	0	0	-0.0356166	-0.481233	1.03547	0.635847	0.771611	0	0
60.02	-2.65545	1.29946	1.34415	0.809268	1.00798	0.998014	0.0631513	0.0501253	-0.378092	0.403161	-0.148068	0	0	0.486451	-0.0941862	0.046988	0.233262	-0.333083	0	0	-0.0301275	0.0416263	0.179745	0.601053	-0.0988852	0.380953	0.961445	1.5708	0	0	-0.033156	-0.48516	1.03619	0.645808	0.800463	0	0
60.03	-2.6605	1.30057	1.33666	0.81126	0.999758	0.999288	0.0731811	0.0385902	-0.370734	0.443488	-0.166838	0	0	0.477914	-0.0968146	0.0407176	0.242073	-0.324392	0	0	-0.0314748	0.0405802	0.181349	0.594706	-0.0929329	0.386426	0.964596	1.5708	0	0	-0.0325018	-0.488254	1.03166	0.65676	0.837405	0	0
60.04	-2.66666	1.302	1.32843	0.813298	0.991547	1.00049	0.0849515	0.0260626	-0.362583	0.486806	-0.189848	0	0	0.467257	-0.0996163	0.0301396	0.247671	-0.315745	0	0	-0.0328805	0.0400371	0.184615	0.590551	-0.0892127	0.394226	0.966286	1.5708	0	0	-0.0339163	-0.489467	1.02097	0.667022	0.882531	0	0
60.05	-2.67686	1.30235	1.32422	0.815346	0.983352	1.00139	0.0994864	0.0121466	-0.356332	0.532024	-0.214073	0	0	0.456648	-0.101296	0.0186473	0.250462	-0.307368	0	0	-0.0319445	0.0390883	0.187928	0.587834	-0.0868691	0.403749	0.966284	1.5708	0	0	-0.0372714	-0.490694	1.0079	0.677912	0.927503	0	0
60.06	-2.6889	1.30241	1.32247	0.817251	0.975304	1.00204	0.11564	-0.00229841	-0.35198	0.578093	-0.238437	0	0	0.445957	-0.102161	0.00727304	0.25174	-0.298782	0	0	-0.0303928	0.0378068	0.190834	0.585209	-0.0836115	0.41286	0.965801	1.5708	0	0	-0.0417489	-0.492638	0.99315	0.690155	0.968252	0	0
60.07	-2.70009	1.30404	1.31976	0.818929	0.967526	1.00266	0.131342	-0.0165338	-0.347823	0.624226	-0.26274	0	0	0.433652	-0.103169	-0.00626152	0.25263	-0.289853	0	0	-0.0311798	0.0364854	0.194418	0.583856	-0.0816231	0.427345	0.966346	1.5708	0	0	-0.045749	-0.494418	0.978488	0.702264	1.0023	0	0
60.08	-2.71021	1.30762	1.31656	0.820562	0.960127	1.00317	0.14602	-0.030875	-0.344525	0.670464	-0.277066	0	0	0.419811	-0.103611	-0.0190691	0.253733	-0.283395	0	0	-0.0402468	0.0371564	0.20837	0.560738	-0.043346	0.427731	1.00826	1.35406	0	0	-0.0360297	-0.493523	0.982022	0.710105	1.02102	0	0
60.09	-2.72873	1.30485	1.32182	0.822111	0.952545	1.00327	0.168053	-0.0449117	-0.340559	0.714967	-0.302978	0	0	0.41299	-0.103443	-0.0330218	0.254238	-0.275545	0	0	-0.0286559	0.0328566	0.199427	0.581598	-0.072814	0.450229	0.961994	1.5708	0	0	-0.0614773	-0.494754	0.932657	0.723407	1.06675	0	0
60.1	-2.73852	1.30758	1.3199	0.823636	0.945348	1.00371	0.183732	-0.0572756	-0.337736	0.756338	-0.318527	0	0	0.400813	-0.103864	-0.047216	0.254835	-0.268169	0	0	-0.0313389	0.0317885	0.201615	0.581811	-0.0682287	0.450304	0.960461	1.5708	0	0	-0.0666896	-0.494452	0.914989	0.731609	1.08479	0	0
60.11	-2.74393	1.31052	1.31558	0.825207	0.93834	1.00423	0.198299	-0.0676547	-0.335905	0.793251	-0.325127	0	0	0.388576	-0.104493	-0.0588332	0.254941	-0.261971	0	0	-0.0345528	0.0318678	0.202221	0.58211	-0.0639506	0.456283	0.95833	1.5708	0	0	-0.0705246	-0.493723	0.901659	0.737554	1.09325	0	0
60.12	-2.74345	1.31387	1.30727	0.826853	0.931492	1.00491	0.211255	-0.0757302	-0.334464	0.825465	-0.323841	0	0	0.375885	-0.105772	-0.0688968	0.254629	-0.256503	0	0	-0.0387509	0.033308	0.201747	0.583789	-0.0606415	0.463395	0.954509	1.5708	0	0	-0.0731128	-0.492655	0.891395	0.742004	1.09568	0	0
60.13	-2.73579	1.31741	1.29358	0.828551	0.924776	1.00579	0.222629	-0.0810991	-0.332709	0.853313	-0.316371	0	0	0.362705	-0.108132	-0.0790514	0.253857	-0.251756	0	0	-0.043727	0.0364397	0.200795	0.58663	-0.0578071	0.467484	0.94888	1.5708	0	0	-0.0744639	-0.490821	0.883246	0.74442	1.09647	0	0
60.14	-2.71875	1.32107	1.27225	0.830216	0.918182	1.00683	0.232237	-0.0830744	-0.330563	0.876419	-0.30591	0	0	0.349067	-0.112409	-0.0901442	0.253008	-0.248043	0	0	-0.049688	0.041858	0.199244	0.589123	-0.0540703	0.468848	0.943151	1.5708	0	0	-0.0752858	-0.487771	0.874598	0.744669	1.09751	0	0
60.15	-2.69602	1.32527	1.24633	0.831922	0.911633	1.00809	0.239859	-0.083155	-0.328103	0.894606	-0.295213	0	0	0.334064	-0.117215	-0.10036	0.251052	-0.245746	0	0	-0.0567251	0.0486801	0.197514	0.59205	-0.050117	0.469523	0.936623	1.5708	0	0	-0.0756886	-0.483015	0.865376	0.742164	1.09771	0	0
60.16	-2.66925	1.32989	1.21733	0.833697	0.905165	1.00949	0.246008	-0.0820703	-0.325545	0.908579	-0.28538	0	0	0.318108	-0.122097	-0.109837	0.248143	-0.244132	0	0	-0.0644897	0.0560008	0.196046	0.59564	-0.0469656	0.470142	0.92978	1.5708	0	0	-0.0753941	-0.478043	0.857066	0.738776	1.09709	0	0
60.17	-2.63905	1.33393	1.18592	0.835534	0.898797	1.01091	0.251943	-0.0797742	-0.322975	0.91899	-0.276611	0	0	0.302587	-0.127327	-0.118245	0.24495	-0.242526	0	0	-0.0718394	0.0642404	0.194657	0.599392	-0.0446833	0.470154	0.922969	1.5708	0	0	-0.074426	-0.472447	0.850089	0.734006	1.09912	0	0
60.18	-2.60579	1.33672	1.15224	0.837379	0.892523	1.01226	0.258447	-0.0760071	-0.320241	0.926272	-0.268276	0	0	0.288241	-0.133352	-0.125764	0.241802	-0.241058	0	0	-0.0781672	0.0737442	0.193531	0.602642	-0.0430876	0.468414	0.916701	1.5708	0	0	-0.0736336	-0.465854	0.842216	0.728107	1.10382	0	0
60.19	-2.57081	1.33877	1.117	0.839106	0.886201	1.01355	0.265033	-0.0710549	-0.317128	0.930538	-0.260123	0	0	0.274031	-0.140171	-0.134048	0.238182	-0.239754	0	0	-0.0837427	0.0836183	0.193057	0.605502	-0.0418069	0.465396	0.910431	1.5708	0	0	-0.0735027	-0.45939	0.833407	0.722558	1.1092	0	0
